<svg width="512" height="512" viewBox="0 0 512 512" fill="none" xmlns="http://www.w3.org/2000/svg">
 <style>
    #letterform-p { fill: #353533; }
    #letterform-d { fill: #F58321; }
    #letterform-c { fill: #1177BD; }
    @media (prefers-color-scheme: dark) {
      #letterform-p,
      #letterform-d,
      #letterform-c { fill: #FFFFFF; }
    }
</style>
  <path id="letterform-p" fill="#353533" d="M241.034 480.479V512C237.708 511.238 234.407 510.058 231.181 508.904C230.854 508.787 230.527 508.671 230.201 508.555C224.15 506.402 218.169 504.091 212.31 501.45C186.466 489.799 162.889 473.765 141.839 454.821C94.0388 411.804 59.5773 354.862 38.5857 294.397C29.7373 268.914 23.2464 242.413 19.7277 215.656C15.744 185.368 14.6608 154.541 17.9154 124.136C18.7844 116.018 20.1804 107.714 23.0419 100.039C24.5645 95.9559 26.5752 91.8229 29.8638 88.8631C37.6135 81.8896 47.4635 88.0085 55.0302 92.7089C55.8819 93.238 56.7048 93.7492 57.4924 94.2217C79.8862 107.656 102.456 120.834 125.042 133.943C138.847 141.954 152.604 150.044 166.361 158.135C180.08 166.202 193.798 174.27 207.563 182.258C215.611 186.928 223.658 191.608 231.662 196.354C232.946 197.115 234.236 197.866 235.526 198.617C236.43 199.143 237.333 199.669 238.234 200.198C238.449 200.324 238.72 200.455 239.01 200.594C239.729 200.939 240.561 201.338 240.908 201.856C241.261 202.38 241.164 203.537 241.087 204.452C241.059 204.784 241.034 205.085 241.034 205.311V214.682V250.097V383.848L233.488 379.639L221.195 372.702L182.369 350.796L112.263 311.243L80.0091 293.058C83.7371 304.076 88.5362 314.797 93.7321 325.188C110.495 358.71 133.903 388.891 161.678 414.009C178.65 429.358 197.07 442.955 216.691 454.727C222.447 458.18 228.336 461.505 234.34 464.506L239.208 466.94C239.326 466.999 239.474 467.06 239.636 467.127C240.143 467.336 240.774 467.596 240.961 467.991C241.255 468.618 241.168 469.686 241.093 470.6C241.062 470.97 241.034 471.315 241.034 471.595V480.479ZM57.3069 153.865C57.1322 158.026 56.9573 162.191 57.0065 166.367C57.1878 181.565 58.3672 196.861 60.8708 211.883C61.8311 217.646 62.9679 223.375 64.3858 229.043C64.4456 229.282 64.5052 229.521 64.5647 229.761C64.9101 231.148 65.2556 232.536 65.648 233.911C65.6985 234.088 65.7406 234.281 65.7836 234.477C65.888 234.955 65.9982 235.459 66.248 235.835C66.7128 236.536 67.7854 237.103 68.6971 237.584C69.0079 237.748 69.2999 237.903 69.5428 238.049C70.773 238.79 71.9968 239.541 73.2206 240.292C74.5478 241.106 75.8751 241.921 77.2106 242.722C81.5568 245.331 85.8957 247.952 90.2346 250.572C94.7755 253.315 99.3164 256.058 103.866 258.787C115.755 265.919 127.664 273.021 139.572 280.122C149.298 285.921 159.023 291.721 168.738 297.537C170.705 298.714 172.669 299.896 174.634 301.077C180.32 304.496 186.006 307.915 191.741 311.243C192.915 311.924 194.083 312.679 195.257 313.439C197.441 314.851 199.649 316.279 201.965 317.277V253.505V235.128V229.895C201.965 229.711 201.98 229.499 201.996 229.275C202.036 228.7 202.082 228.049 201.892 227.608C201.648 227.043 200.704 226.585 199.954 226.221C199.697 226.097 199.463 225.983 199.288 225.88C198.601 225.477 197.915 225.072 197.229 224.667C195.485 223.638 193.741 222.609 191.985 221.601C186.87 218.665 181.791 215.665 176.712 212.665C172.721 210.308 168.73 207.951 164.721 205.625C152.597 198.589 140.519 191.473 128.442 184.357C116.33 177.221 104.218 170.085 92.0595 163.029C88.1919 160.785 84.3391 158.514 80.4863 156.243C76.6 153.953 72.7138 151.663 68.8125 149.399C67.568 148.676 66.3309 147.906 65.0893 147.132C62.6445 145.61 60.1828 144.077 57.615 142.878C57.6145 146.54 57.4607 150.201 57.3069 153.865Z" />
  <path id="letterform-d" fill="#F58321" fill-rule="evenodd" clip-rule="evenodd" d="M387.824 438.492C356.08 471.686 316.387 499.356 271.828 512V284.052V223.688V207.745V203.486C271.828 203.374 271.819 203.245 271.81 203.107C271.782 202.675 271.748 202.161 271.953 201.856C272.271 201.383 273.001 201.026 273.63 200.718C273.863 200.603 274.083 200.496 274.262 200.392C275.05 199.934 275.836 199.473 276.622 199.012C277.74 198.355 278.858 197.699 279.983 197.054C286.583 193.265 293.153 189.403 299.7 185.522C324 171.115 348.416 156.884 372.849 142.705C390.51 132.455 408.101 122.082 425.691 111.708C434.566 106.474 443.442 101.24 452.326 96.0216C453.15 95.5379 453.97 95.0489 454.79 94.56C455.914 93.8902 457.037 93.2204 458.169 92.5641C459.062 92.0455 459.999 91.4714 460.969 90.8765C467.647 86.7812 475.936 81.6989 482.998 86.9536C486.187 89.3268 488.104 93.147 489.546 96.7531C492.572 104.317 493.96 112.661 494.825 120.728C498.135 151.649 497.43 183.125 493.377 213.952C482.476 296.869 445.781 377.887 387.824 438.492ZM433.026 155.897C440.43 151.618 447.837 147.339 455.124 142.878C455.547 143.881 455.516 145.15 455.487 146.368C455.471 147.021 455.456 147.659 455.51 148.233C455.885 152.162 455.829 156.168 455.773 160.149C455.753 161.577 455.733 163.002 455.733 164.419C455.733 184.287 453.721 204.167 450.672 223.81C439.771 294.073 409.596 361.912 357.755 411.479C347.779 421.017 337.057 429.811 325.745 437.728C325.134 438.155 324.523 438.585 323.911 439.015C319.685 441.987 315.397 445.002 310.896 447.498V286.608V243.526V231.964C310.896 231.664 310.862 231.265 310.824 230.824C310.723 229.652 310.597 228.185 311.021 227.507C311.424 226.863 312.505 226.338 313.409 225.901C313.747 225.737 314.06 225.585 314.304 225.443C315.513 224.741 316.717 224.03 317.921 223.319C319.43 222.428 320.939 221.536 322.459 220.664C329.152 216.821 335.801 212.897 342.449 208.974C345.278 207.304 348.107 205.634 350.939 203.971C362.548 197.153 374.165 190.346 385.781 183.54C397.619 176.603 409.457 169.666 421.289 162.717C425.188 160.426 429.107 158.162 433.026 155.897Z" />
  <path id="letterform-c" fill="#1177BD" d="M61.752 73.0211V73.2645C67.0026 75.7156 71.9672 79.2121 76.9659 82.1476C87.3078 88.2217 97.6289 94.3324 108.002 100.353C140.217 119.048 172.282 138.011 204.398 156.875C217.616 164.64 230.759 172.561 244.076 180.153C247.59 182.156 251.03 184.288 254.543 186.292C255.578 186.882 257.357 188.48 258.56 188.499C259.784 188.52 261.774 186.82 262.82 186.205C266.252 184.19 269.733 182.257 273.165 180.242C285.475 173.013 297.878 165.91 310.287 158.855C342.194 140.715 373.963 122.304 405.71 103.882C415.268 98.3351 424.875 92.8768 434.434 87.3308C440.088 84.0485 445.689 80.5703 451.473 77.5241V77.2807L420.68 59.982L355.564 23.3838L327.205 7.44086L318.564 2.574L313.817 0V28.3565V36.3889L313.89 39.7564L315.278 40.7324L318.686 42.6334L331.587 49.8807L366.031 69.2313L376.986 75.3846L383.071 78.7411V78.9845C380.247 79.8778 377.457 82.3253 374.916 83.8526C368.718 87.5791 362.583 91.4164 356.416 95.194C337.466 106.803 318.469 118.343 299.577 130.048C290.273 135.812 280.887 141.443 271.583 147.208C268.874 148.886 266.157 150.554 263.428 152.2C262.075 153.017 260.268 153.792 259.169 154.927H259.047C258.157 154.009 256.734 153.417 255.639 152.76C253.404 151.419 251.179 150.061 248.945 148.72C241.794 144.43 234.652 140.121 227.523 135.795C205.726 122.564 183.786 109.562 162.042 96.2431C155.577 92.2829 149.05 88.4201 142.569 84.4855C139.516 82.6332 135.947 81.0182 133.197 78.7411L139.526 74.9745L148.898 69.2971L181.638 49.4621L193.931 42.0261L196.974 40.186L198.118 39.2866L198.191 36.3889L197.947 28.8434L197.217 0L192.592 2.40264L182.003 8.11642L151.332 24.6678L92.9102 56.1885L72.8277 67.02L61.752 73.0211Z" />
</svg>
